<svg aria-hidden="true" style="position: absolute; width: 0; height: 0; overflow: hidden;" version="1.1" xmlns="http://www.w3.org/2000/svg" xmlns:xlink="http://www.w3.org/1999/xlink">
<defs>
<symbol id="twitter" viewBox="0 0 38 32">
<title>twitter</title>
<path d="M25.469 0.873c2.967-0.058 4.538 1.033 6.036 2.4 1.28-0.116 2.938-0.829 3.913-1.324 0.32-0.175 0.64-0.349 0.96-0.524-0.567 1.513-1.324 2.691-2.487 3.593-0.247 0.204-0.509 0.465-0.829 0.596 0 0 0 0.015 0 0.015 1.658-0.015 3.025-0.756 4.32-1.164 0 0 0 0 0 0.015-0.684 1.076-1.6 2.182-2.589 2.967-0.393 0.32-0.8 0.64-1.193 0.945 0.015 1.76-0.029 3.433-0.349 4.916-1.92 8.567-6.967 14.385-14.967 16.887-2.88 0.887-7.52 1.265-10.807 0.451-1.644-0.407-3.113-0.873-4.495-1.469-0.771-0.335-1.484-0.713-2.167-1.12-0.218-0.131-0.451-0.276-0.669-0.407 0.742 0.015 1.615 0.218 2.444 0.087 0.742-0.116 1.484-0.087 2.182-0.233 1.731-0.378 3.258-0.887 4.582-1.658 0.64-0.378 1.615-0.815 2.065-1.353-0.858 0.015-1.629-0.189-2.269-0.407-2.473-0.873-3.913-2.487-4.844-4.887 0.742 0.073 2.909 0.276 3.404-0.16-0.945-0.044-1.847-0.596-2.487-1.004-1.993-1.236-3.622-3.316-3.607-6.531 0.262 0.116 0.524 0.247 0.785 0.364 0.495 0.218 1.004 0.335 1.6 0.451 0.262 0.058 0.756 0.204 1.047 0.087-0.015 0-0.029 0-0.044 0-0.378-0.436-1.004-0.742-1.396-1.222-1.265-1.585-2.473-4.029-1.716-6.924 0.204-0.742 0.509-1.396 0.829-1.993 0.015 0 0.029 0.015 0.029 0.015 0.16 0.32 0.48 0.538 0.698 0.8 0.655 0.815 1.455 1.542 2.269 2.182 2.793 2.182 5.309 3.52 9.338 4.509 1.018 0.247 2.211 0.451 3.433 0.451-0.349-1.004-0.233-2.618 0.029-3.593 0.684-2.429 2.167-4.189 4.335-5.12 0.509-0.233 1.091-0.393 1.687-0.524 0.32-0.044 0.625-0.073 0.931-0.116z"></path>
</symbol>
<symbol id="facebook" viewBox="0 0 16 32">
<title>facebook</title>
<path d="M14.88 0.246c0 1.822 0 5.071 0 5.071s-3.742-0.369-4.677 1.058c-0.505 0.788-0.209 3.077-0.246 4.726 1.625 0 3.323 0 4.948 0-0.418 1.92-0.714 3.225-1.022 4.898-1.415 0-3.963 0-3.963 0s0 15.754 0 15.754c0 0-4.665 0-6.868 0 0-4.862 0-10.523 0-15.692-1.071 0-1.858 0-2.917 0 0-1.822 0-3.138 0-4.96 1.034 0 1.846 0 2.88 0 0.16-3.631 0.209-7.225 2.006-9.046 2.031-2.055 3.963-1.809 9.858-1.809z"></path>
</symbol>
<symbol id="instagram" viewBox="0 0 32 32">
<title>instagram</title>
<path d="M27.938 31.754c0 0-23.631 0-23.631 0-2.178 0-3.938-1.76-3.938-3.938 0 0 0-23.631 0-23.631 0-2.178 1.76-3.938 3.938-3.938 0 0 23.631 0 23.631 0 2.178 0 3.938 1.76 3.938 3.938 0 0 0 23.631 0 23.631 0 2.178-1.76 3.938-3.938 3.938zM16.123 9.895c-2.462 0-4.566 1.452-5.538 3.545 0 0 0 0 0 0-0.012 0.025-0.025 0.049-0.025 0.062-0.062 0.135-0.111 0.271-0.16 0.406-0.025 0.062-0.049 0.123-0.074 0.185-0.049 0.135-0.086 0.283-0.123 0.418-0.012 0.062-0.037 0.135-0.049 0.197-0.025 0.148-0.049 0.295-0.074 0.455 0 0.062-0.025 0.123-0.025 0.185-0.025 0.209-0.037 0.431-0.037 0.652 0 3.372 2.732 6.105 6.105 6.105s6.105-2.732 6.105-6.105c0-0.222-0.012-0.443-0.037-0.652 0-0.062-0.025-0.123-0.025-0.185-0.025-0.16-0.049-0.308-0.074-0.455-0.025-0.062-0.037-0.135-0.049-0.197-0.037-0.135-0.074-0.283-0.123-0.418-0.025-0.062-0.049-0.123-0.074-0.185-0.049-0.135-0.098-0.271-0.16-0.406 0-0.012-0.012-0.037-0.025-0.062 0 0 0 0 0 0-0.972-2.092-3.077-3.545-5.538-3.545zM28.332 5.366c0-0.874-0.702-1.575-1.575-1.575 0 0-3.151 0-3.151 0-0.874 0-1.575 0.702-1.575 1.575 0 0 0 3.151 0 3.151 0 0.874 0.702 1.575 1.575 1.575 0 0 3.151 0 3.151 0 0.874 0 1.575-0.702 1.575-1.575 0 0 0-3.151 0-3.151zM28.332 13.44c0 0-2.905 0-2.905 0 0.222 0.812 0.345 1.674 0.345 2.56 0 5.329-4.32 9.649-9.649 9.649s-9.649-4.32-9.649-9.649c0-0.886 0.123-1.748 0.345-2.56 0 0-2.905 0-2.905 0s0 13.194 0 13.194c0 0.874 0.702 1.575 1.575 1.575 0 0 21.268 0 21.268 0 0.874 0 1.575-0.702 1.575-1.575 0 0 0-13.194 0-13.194z"></path>
</symbol>
<symbol id="pinterest" viewBox="0 0 26 32">
<title>pinterest</title>
<path d="M11.138 20.738c-0.258 1.034-0.517 2.105-0.788 3.151-0.258 1.046-0.492 2.092-0.874 3.040-0.64 1.588-1.452 3.102-2.523 4.345-0.702 0.812-0.554 0.492-0.763 0.443-0.172-0.037-0.185-0.197-0.209-0.418-0.172-1.255-0.062-2.708 0-4.111 0.074-1.612 0.418-2.942 0.726-4.283 0.603-2.535 1.169-5.022 1.772-7.582 0.037-0.172 0.148-0.455 0.111-0.542-0.271-0.714-0.455-1.354-0.529-2.092-0.086-0.862-0.025-1.662 0.172-2.4 0.332-1.305 1.12-2.449 2.326-2.88 0.775-0.258 1.625-0.135 2.142 0.172 0.529 0.308 0.898 0.812 1.058 1.526 0.185 0.763 0.049 1.662-0.098 2.326-0.32 1.502-0.751 2.634-1.145 4.074-0.197 0.726-0.418 1.465-0.234 2.228 0.16 0.714 0.529 1.206 1.046 1.575 0.517 0.382 1.132 0.591 1.994 0.566 1.514-0.062 2.56-1.022 3.262-1.932 1.12-1.465 1.809-3.434 2.068-5.772 0.074-0.751 0.135-1.625 0.086-2.474-0.111-1.588-0.603-2.855-1.391-3.84-0.751-0.935-1.809-1.686-3.089-2.105s-3.052-0.554-4.615-0.283c-2.855 0.48-4.862 2.105-6.043 4.345-0.628 1.169-1.034 2.523-1.034 4.197 0 1.292 0.32 2.289 0.837 3.077 0.16 0.246 0.394 0.455 0.554 0.738 0.234 0.394-0.025 0.997-0.148 1.428-0.135 0.529-0.148 1.243-0.751 1.255-0.258 0.012-0.578-0.172-0.788-0.295-1.612-0.886-2.585-2.498-2.978-4.603-0.246-1.268-0.246-2.745 0-3.975 0.234-1.194 0.665-2.289 1.145-3.175 1.009-1.858 2.474-3.335 4.258-4.394 1.378-0.812 2.929-1.378 4.812-1.649 0.628-0.098 1.268-0.135 1.969-0.16 2.055-0.098 3.926 0.357 5.329 0.985 1.489 0.665 2.671 1.551 3.668 2.646 1.034 1.132 1.785 2.437 2.265 4.074 0.246 0.849 0.48 1.76 0.48 2.818 0 1.046-0.222 1.982-0.369 2.917-0.591 3.471-2.24 6.326-4.726 7.938-0.603 0.394-1.329 0.763-2.166 0.997-0.812 0.246-1.748 0.418-2.757 0.357-0.972-0.074-1.772-0.332-2.437-0.714s-1.231-0.837-1.625-1.538z"></path>
</symbol>
<symbol id="search" viewBox="0 0 32 32">
<title>search</title>
<path d="M30.791 26.631c0.533 0.533 0.853 1.262 0.853 2.080 0 1.618-1.316 2.933-2.933 2.933-0.818 0-1.547-0.338-2.080-0.853 0 0 0 0 0 0s-8.587-8.604-8.587-8.604c-1.742 1.031-3.787 1.636-5.956 1.636-6.489 0-11.733-5.262-11.733-11.733 0-6.489 5.244-11.733 11.733-11.733s11.733 5.244 11.733 11.733c0 2.169-0.604 4.196-1.636 5.956 0 0 8.604 8.587 8.604 8.587s0 0 0 0zM12.089 3.289c-4.853 0-8.8 3.947-8.8 8.8s3.947 8.8 8.8 8.8c4.853 0 8.8-3.947 8.8-8.8s-3.947-8.8-8.8-8.8z"></path>
</symbol>
<symbol id="shopping_cart" viewBox="0 0 32 32">
<title>shopping_cart</title>
<path d="M31.52 9.173c0 0 0 0 0 0s-4.409 9.778-4.409 9.778c0 0 0 0 0 0-0.213 0.48-0.676 0.836-1.244 0.871 0 0 0 0 0 0s-12.658 0.836-12.658 0.836c0 0 0.729 2.098 0.729 2.098s13.796 0 13.796 0c1.618 0 2.933 1.316 2.933 2.933s-1.316 2.933-2.933 2.933c-1.618 0-2.933-1.316-2.933-2.933 0 0-13.689 0-13.689 0 0 1.618-1.316 2.933-2.933 2.933s-2.933-1.316-2.933-2.933c0-1.618 1.316-2.933 2.933-2.933 0 0 2.649 0 2.649 0s-5.653-16.142-5.653-16.142c0 0-3.36 0-3.36 0-0.8 0-1.458-0.64-1.458-1.458s0.658-1.476 1.458-1.476c0 0 4.409 0 4.409 0 0.64 0 1.173 0.427 1.387 0.996 0 0 0 0 0 0s0.853 2.436 0.853 2.436c0 0 21.707 0 21.707 0 0.818 0 1.476 0.658 1.476 1.458 0 0.231-0.053 0.427-0.124 0.604zM9.493 10.044c0 0 2.702 7.751 2.702 7.751s12.604-0.853 12.604-0.853c0 0 3.111-6.898 3.111-6.898s-18.418 0-18.418 0z"></path>
</symbol>
</defs>
</svg>
